<svg width="60" height="60" viewBox="0 0 60 60" fill="none" xmlns="http://www.w3.org/2000/svg">
<path d="M0 22.5V45C0.00396964 48.314 1.3222 51.4911 3.66555 53.8345C6.00889 56.1778 9.18601 57.496 12.5 57.5H47.5C50.814 57.496 53.9911 56.1778 56.3345 53.8345C58.6778 51.4911 59.996 48.314 60 45V22.5H0ZM35 47.5H15C14.337 47.5 13.7011 47.2366 13.2322 46.7678C12.7634 46.2989 12.5 45.663 12.5 45C12.5 44.337 12.7634 43.7011 13.2322 43.2322C13.7011 42.7634 14.337 42.5 15 42.5H35C35.663 42.5 36.2989 42.7634 36.7678 43.2322C37.2366 43.7011 37.5 44.337 37.5 45C37.5 45.663 37.2366 46.2989 36.7678 46.7678C36.2989 47.2366 35.663 47.5 35 47.5ZM45 37.5H15C14.337 37.5 13.7011 37.2366 13.2322 36.7678C12.7634 36.2989 12.5 35.663 12.5 35C12.5 34.337 12.7634 33.7011 13.2322 33.2322C13.7011 32.7634 14.337 32.5 15 32.5H45C45.663 32.5 46.2989 32.7634 46.7678 33.2322C47.2366 33.7011 47.5 34.337 47.5 35C47.5 35.663 47.2366 36.2989 46.7678 36.7678C46.2989 37.2366 45.663 37.5 45 37.5ZM60 17.5V15C59.996 11.686 58.6778 8.50889 56.3345 6.16555C53.9911 3.8222 50.814 2.50397 47.5 2.5H12.5C9.18601 2.50397 6.00889 3.8222 3.66555 6.16555C1.3222 8.50889 0.00396964 11.686 0 15L0 17.5H60ZM25 7.5C25.4945 7.5 25.9778 7.64662 26.3889 7.92133C26.8 8.19603 27.1205 8.58648 27.3097 9.04329C27.4989 9.50011 27.5484 10.0028 27.452 10.4877C27.3555 10.9727 27.1174 11.4181 26.7678 11.7678C26.4181 12.1174 25.9727 12.3555 25.4877 12.452C25.0028 12.5484 24.5001 12.4989 24.0433 12.3097C23.5865 12.1205 23.196 11.8 22.9213 11.3889C22.6466 10.9778 22.5 10.4945 22.5 10C22.5 9.33696 22.7634 8.70107 23.2322 8.23223C23.7011 7.76339 24.337 7.5 25 7.5ZM17.5 7.5C17.9945 7.5 18.4778 7.64662 18.8889 7.92133C19.3 8.19603 19.6205 8.58648 19.8097 9.04329C19.9989 9.50011 20.0484 10.0028 19.952 10.4877C19.8555 10.9727 19.6174 11.4181 19.2678 11.7678C18.9181 12.1174 18.4727 12.3555 17.9877 12.452C17.5028 12.5484 17.0001 12.4989 16.5433 12.3097C16.0865 12.1205 15.696 11.8 15.4213 11.3889C15.1466 10.9778 15 10.4945 15 10C15 9.33696 15.2634 8.70107 15.7322 8.23223C16.2011 7.76339 16.837 7.5 17.5 7.5ZM10 7.5C10.4945 7.5 10.9778 7.64662 11.3889 7.92133C11.8 8.19603 12.1205 8.58648 12.3097 9.04329C12.4989 9.50011 12.5484 10.0028 12.452 10.4877C12.3555 10.9727 12.1174 11.4181 11.7678 11.7678C11.4181 12.1174 10.9727 12.3555 10.4877 12.452C10.0028 12.5484 9.50011 12.4989 9.04329 12.3097C8.58648 12.1205 8.19603 11.8 7.92133 11.3889C7.64662 10.9778 7.5 10.4945 7.5 10C7.5 9.33696 7.76339 8.70107 8.23223 8.23223C8.70107 7.76339 9.33696 7.5 10 7.5Z" fill="#F2F3F4"/>
</svg>
