<svg width="60" height="60" viewBox="0 0 60 60" fill="none" xmlns="http://www.w3.org/2000/svg">
<g id="icone-hdd 1" clip-path="url(#clip0_1565_415)">
<path id="Vector" d="M2.5 37.5V12.5C2.5 5.6 8.1 0 15 0H45C51.9 0 57.5 5.6 57.5 12.5V37.5H2.5ZM57.5 42.5V47.5C57.5 54.4 51.9 60 45 60H15C8.1 60 2.5 54.4 2.5 47.5V42.5H57.5ZM40 51.25C40 49.175 38.325 47.5 36.25 47.5C34.175 47.5 32.5 49.175 32.5 51.25C32.5 53.325 34.175 55 36.25 55C38.325 55 40 53.325 40 51.25ZM50 51.25C50 49.175 48.325 47.5 46.25 47.5C44.175 47.5 42.5 49.175 42.5 51.25C42.5 53.325 44.175 55 46.25 55C48.325 55 50 53.325 50 51.25Z" fill="#F2F3F4"/>
</g>
<defs>
<clipPath id="clip0_1565_415">
<rect width="60" height="60" fill="white"/>
</clipPath>
</defs>
</svg>
