<svg width="120" height="120" viewBox="0 0 120 120" fill="none" xmlns="http://www.w3.org/2000/svg">
<g id="bt-expandir-portfolio">
<path id="Vector" d="M60 66.125L79.5 46.625C80.4167 45.7083 81.5833 45.25 83 45.25C84.4167 45.25 85.5833 45.7083 86.5 46.625C87.4167 47.5417 87.875 48.7083 87.875 50.125C87.875 51.5417 87.4167 52.7083 86.5 53.625L63.5 76.625C63 77.125 62.4583 77.4792 61.875 77.6875C61.2917 77.8958 60.6667 78 60 78C59.3333 78 58.7083 77.8958 58.125 77.6875C57.5417 77.4792 57 77.125 56.5 76.625L33.5 53.625C32.5833 52.7083 32.125 51.5417 32.125 50.125C32.125 48.7083 32.5833 47.5417 33.5 46.625C34.4167 45.7083 35.5833 45.25 37 45.25C38.4167 45.25 39.5833 45.7083 40.5 46.625L60 66.125Z" fill="white"/>
</g>
</svg>
