<?xml version="1.0" standalone="no"?>
<!DOCTYPE svg PUBLIC "-//W3C//DTD SVG 20010904//EN"
 "http://www.w3.org/TR/2001/REC-SVG-20010904/DTD/svg10.dtd">
<svg version="1.0" xmlns="http://www.w3.org/2000/svg"
 width="3796.000000pt" height="3796.000000pt" viewBox="0 0 3796.000000 3796.000000"
 preserveAspectRatio="xMidYMid meet">

<g transform="translate(0.000000,3796.000000) scale(0.100000,-0.100000)"
fill="#000000" stroke="none">
<path d="M9303 25663 c3 -12073 5 -12599 33 -12713 3 -14 10 -79 15 -145 17
-240 29 -354 39 -380 5 -14 10 -46 10 -71 0 -24 4 -63 10 -86 5 -24 19 -110
30 -193 11 -82 25 -170 30 -195 5 -25 14 -74 20 -110 5 -36 13 -72 16 -80 7
-17 20 -78 33 -156 5 -28 14 -61 20 -72 6 -11 11 -31 11 -43 0 -12 4 -36 10
-53 5 -17 18 -67 29 -111 11 -44 27 -105 36 -135 9 -30 19 -68 21 -85 3 -16 9
-39 14 -50 5 -11 16 -49 24 -85 22 -93 40 -154 47 -160 3 -3 9 -22 13 -44 4
-21 11 -46 16 -55 4 -9 13 -36 20 -61 6 -25 18 -58 26 -73 8 -16 14 -35 14
-43 0 -7 11 -39 25 -70 14 -31 25 -65 25 -75 0 -11 5 -19 10 -19 6 0 10 -9 10
-21 0 -11 6 -33 14 -47 8 -15 20 -47 27 -72 7 -25 16 -49 20 -55 4 -5 10 -25
14 -43 3 -17 11 -32 16 -32 5 0 9 -11 9 -25 0 -14 5 -25 10 -25 6 0 10 -10 10
-23 0 -13 7 -32 15 -43 8 -10 15 -27 15 -36 0 -10 5 -18 10 -18 6 0 10 -10 10
-23 0 -13 7 -32 15 -43 8 -10 15 -27 15 -36 0 -10 4 -18 9 -18 5 0 12 -12 16
-27 4 -16 22 -62 42 -103 19 -41 38 -84 43 -95 4 -11 24 -54 44 -96 20 -41 36
-81 36 -87 0 -7 4 -12 10 -12 5 0 12 -11 16 -25 3 -14 10 -25 15 -25 5 0 9
-11 9 -25 0 -14 4 -25 10 -25 5 0 12 -11 16 -25 3 -14 10 -25 15 -25 5 0 9
-11 9 -25 0 -14 3 -25 8 -25 7 0 25 -32 61 -110 9 -19 19 -36 24 -38 4 -2 7
-12 7 -23 0 -10 5 -19 10 -19 6 0 10 -5 10 -11 0 -6 34 -68 75 -138 41 -70 75
-133 75 -139 0 -7 4 -12 8 -12 4 0 21 -26 37 -57 17 -32 36 -63 43 -71 6 -7
12 -20 12 -28 0 -8 4 -14 10 -14 5 0 12 -11 16 -25 3 -14 9 -25 13 -25 4 0 20
-23 36 -50 16 -27 32 -50 35 -50 3 0 14 -16 24 -35 11 -19 23 -35 28 -35 4 0
8 -6 8 -14 0 -8 6 -21 13 -28 7 -7 19 -28 26 -45 7 -18 17 -33 22 -33 5 0 9
-5 9 -11 0 -6 6 -17 13 -24 29 -33 37 -45 37 -55 0 -5 4 -10 9 -10 5 0 13 -9
16 -21 4 -12 14 -30 24 -41 9 -11 24 -29 34 -40 9 -12 17 -27 17 -35 0 -7 7
-13 15 -13 8 0 15 -7 15 -15 0 -8 4 -15 8 -15 5 0 16 -16 25 -35 9 -19 21 -35
26 -35 5 0 12 -8 15 -17 3 -10 16 -30 28 -44 46 -54 68 -84 68 -92 0 -5 17
-26 38 -47 45 -47 62 -67 62 -74 0 -5 7 -14 50 -66 8 -9 26 -32 40 -50 14 -18
43 -53 65 -77 55 -59 65 -71 65 -78 0 -4 16 -21 35 -39 19 -19 35 -36 35 -40
0 -6 35 -47 88 -102 17 -18 32 -38 32 -44 0 -5 5 -10 11 -10 14 0 39 -25 39
-39 0 -6 7 -11 15 -11 8 0 15 -3 15 -7 0 -5 14 -24 30 -43 16 -19 30 -38 30
-42 0 -5 7 -8 15 -8 8 0 15 -4 15 -9 0 -6 41 -50 90 -100 50 -49 90 -95 90
-101 0 -5 6 -10 13 -10 8 0 20 -11 27 -25 7 -14 17 -25 21 -25 5 0 36 -27 69
-60 33 -33 63 -60 65 -60 3 0 43 -38 90 -85 47 -47 88 -85 92 -85 3 0 16 -11
29 -25 13 -14 26 -25 29 -25 3 0 16 -11 29 -25 13 -14 26 -25 29 -25 11 0 87
-79 87 -90 0 -5 5 -10 11 -10 7 0 22 -11 35 -25 13 -14 30 -25 39 -25 8 0 15
-4 15 -10 0 -5 5 -10 11 -10 14 0 39 -25 39 -39 0 -6 5 -11 11 -11 6 0 17 -6
24 -13 31 -27 44 -37 50 -37 10 0 35 -28 35 -39 0 -6 7 -11 15 -11 9 0 26 -11
39 -25 13 -14 28 -25 35 -25 6 0 11 -4 11 -8 0 -5 16 -17 35 -28 19 -10 35
-22 35 -26 0 -5 5 -8 11 -8 14 0 39 -25 39 -39 0 -6 7 -11 16 -11 8 0 22 -6
29 -12 31 -28 44 -38 50 -38 4 0 13 -6 20 -12 31 -28 44 -38 51 -38 4 0 17
-11 30 -25 13 -14 30 -25 39 -25 8 0 15 -4 15 -8 0 -5 16 -17 35 -28 19 -10
35 -22 35 -26 0 -5 5 -8 11 -8 6 0 17 -6 24 -12 33 -30 45 -38 55 -38 5 0 10
-4 10 -9 0 -5 11 -12 25 -15 14 -4 25 -11 25 -16 0 -6 5 -10 11 -10 6 0 17 -6
24 -12 31 -28 44 -38 50 -38 4 0 13 -6 20 -13 35 -31 45 -37 60 -37 8 0 15 -4
15 -10 0 -5 7 -10 16 -10 8 0 22 -6 29 -12 33 -30 45 -38 55 -38 5 0 10 -4 10
-9 0 -5 11 -12 25 -15 14 -4 25 -11 25 -16 0 -6 7 -10 15 -10 8 0 15 -4 15 -9
0 -5 11 -12 25 -15 14 -4 25 -11 25 -16 0 -6 9 -10 20 -10 11 0 20 -4 20 -10
0 -5 7 -10 15 -10 9 0 18 -7 21 -15 4 -8 15 -15 25 -15 10 0 19 -4 19 -9 0 -5
11 -12 25 -15 14 -4 25 -11 25 -16 0 -6 9 -10 20 -10 11 0 20 -4 20 -10 0 -5
9 -10 20 -10 11 0 20 -4 20 -10 0 -5 9 -10 20 -10 11 0 23 -7 26 -15 4 -8 15
-15 25 -15 10 0 19 -4 19 -9 0 -5 11 -12 25 -15 14 -4 25 -11 25 -16 0 -6 9
-10 21 -10 11 0 27 -6 34 -12 36 -32 46 -38 65 -38 11 0 20 -4 20 -9 0 -5 11
-12 25 -15 14 -4 25 -11 25 -16 0 -6 11 -10 25 -10 14 0 25 -4 25 -8 0 -4 23
-16 50 -26 27 -10 50 -22 50 -27 0 -5 11 -9 25 -9 14 0 25 -4 25 -9 0 -5 11
-12 25 -15 14 -4 25 -11 25 -16 0 -6 11 -10 25 -10 14 0 25 -4 25 -9 0 -5 11
-12 25 -15 14 -4 25 -11 25 -16 0 -6 11 -10 25 -10 14 0 25 -4 25 -10 0 -5 9
-10 19 -10 11 0 26 -7 35 -15 8 -8 26 -15 40 -15 14 0 26 -4 26 -9 0 -5 11
-12 25 -15 14 -4 25 -11 25 -16 0 -6 14 -10 30 -10 17 0 30 -4 30 -10 0 -5 14
-10 30 -10 17 0 30 -4 30 -9 0 -5 14 -12 30 -16 17 -4 30 -11 30 -16 0 -5 14
-9 30 -9 17 0 30 -4 30 -9 0 -5 11 -12 25 -15 14 -4 25 -11 25 -16 0 -6 16
-10 35 -10 19 0 35 -4 35 -9 0 -5 16 -12 35 -15 19 -4 35 -11 35 -16 0 -6 14
-10 30 -10 17 0 30 -4 30 -9 0 -5 16 -12 35 -15 19 -4 35 -11 35 -16 0 -6 16
-10 35 -10 19 0 35 -4 35 -9 0 -5 16 -12 35 -15 19 -4 35 -11 35 -16 0 -6 16
-10 35 -10 19 0 35 -4 35 -10 0 -5 16 -10 35 -10 19 0 35 -4 35 -9 0 -5 18
-11 40 -15 22 -3 40 -11 40 -16 0 -6 18 -10 40 -10 22 0 40 -4 40 -9 0 -5 18
-11 40 -15 22 -3 40 -11 40 -16 0 -6 18 -10 40 -10 22 0 40 -4 40 -9 0 -4 19
-11 42 -14 24 -3 44 -11 46 -16 2 -6 24 -11 48 -11 24 0 44 -4 44 -9 0 -4 19
-11 42 -14 24 -3 44 -11 46 -16 2 -6 26 -11 53 -11 27 0 49 -4 49 -9 0 -5 15
-11 33 -14 135 -21 177 -31 177 -38 0 -5 23 -9 50 -9 28 0 50 -4 50 -9 0 -4
27 -11 60 -15 33 -4 60 -11 60 -16 0 -6 27 -10 60 -10 33 0 60 -4 60 -9 0 -4
30 -11 67 -14 38 -4 69 -11 71 -17 2 -5 35 -10 73 -10 38 0 69 -4 69 -9 0 -4
37 -11 83 -15 45 -4 84 -11 85 -16 2 -6 44 -10 93 -10 49 0 89 -4 89 -8 0 -5
46 -12 103 -16 56 -3 104 -11 105 -16 2 -6 63 -10 148 -10 79 0 144 -4 144 -8
0 -15 322 -27 730 -27 406 0 720 12 720 27 0 4 65 8 145 8 81 0 145 4 145 9 0
5 50 13 110 16 61 4 110 11 110 16 0 5 42 9 94 9 54 0 96 4 98 10 2 5 38 13
81 16 42 4 77 11 77 15 0 5 31 9 69 9 38 0 71 5 73 10 2 6 33 13 71 17 37 3
67 10 67 14 0 5 27 9 59 9 33 0 61 5 63 10 2 6 29 14 61 17 31 3 57 10 57 14
0 5 25 9 55 9 30 0 55 4 55 9 0 5 45 17 100 26 55 10 100 22 100 27 0 4 22 8
49 8 27 0 51 5 53 11 2 5 22 13 46 16 23 3 42 10 42 14 0 5 20 9 45 9 25 0 45
4 45 9 0 6 20 13 45 17 25 3 45 10 45 15 0 5 18 9 40 9 22 0 40 4 40 9 0 6 20
13 45 17 25 3 45 10 45 15 0 5 16 9 35 9 19 0 35 4 35 10 0 5 18 13 40 16 22
4 40 10 40 15 0 5 16 9 35 9 19 0 35 5 35 10 0 6 16 10 36 10 19 0 42 7 50 15
9 8 24 15 35 15 10 0 19 5 19 10 0 6 16 10 36 10 19 0 42 7 50 15 9 8 24 15
35 15 10 0 19 5 19 10 0 6 14 10 30 10 17 0 30 4 30 10 0 5 16 12 35 16 19 3
35 10 35 15 0 5 12 9 26 9 14 0 32 7 40 15 9 8 26 15 40 15 13 0 24 5 24 10 0
6 9 10 21 10 11 0 27 7 35 15 9 8 26 15 40 15 13 0 24 5 24 10 0 6 11 10 25
10 14 0 25 5 25 10 0 6 12 10 26 10 14 0 32 7 40 15 9 8 24 15 35 15 10 0 19
5 19 10 0 6 11 10 25 10 14 0 25 4 25 10 0 5 11 12 25 16 14 3 25 10 25 15 0
5 14 9 30 9 17 0 30 4 30 10 0 5 11 12 25 16 14 3 25 10 25 15 0 5 13 9 29 9
16 0 31 6 35 15 3 8 15 15 26 15 11 0 20 5 20 10 0 6 11 10 24 10 13 0 26 7
30 15 3 8 14 15 25 15 11 0 23 5 26 10 3 6 15 10 26 10 10 0 19 5 19 10 0 6
11 10 24 10 13 0 26 7 30 15 3 8 12 15 21 15 8 0 15 5 15 10 0 6 11 10 24 10
13 0 26 7 30 15 3 8 15 15 26 15 11 0 20 5 20 10 0 6 9 10 20 10 11 0 20 4 20
10 0 5 11 12 25 16 14 3 25 10 25 15 0 5 7 9 16 9 8 0 22 6 29 12 36 32 46 38
65 38 11 0 20 5 20 10 0 6 7 10 16 10 8 0 22 6 29 12 35 32 45 38 60 38 9 0
23 6 30 13 34 29 45 37 55 37 6 0 18 6 25 13 35 31 45 37 60 37 9 0 26 11 39
25 13 14 32 25 44 25 11 0 22 7 26 15 3 8 12 15 21 15 8 0 15 5 15 10 0 6 7
10 15 10 8 0 15 5 15 10 0 6 7 10 15 10 9 0 26 11 39 25 13 14 31 25 40 25 9
0 27 11 40 25 13 14 30 25 39 25 8 0 17 7 21 15 3 8 12 15 21 15 8 0 15 5 15
10 0 6 5 10 10 10 6 0 21 11 34 25 13 14 33 25 45 25 11 0 21 6 21 13 0 7 16
19 35 26 19 7 35 17 35 22 0 5 5 9 10 9 6 0 21 11 34 25 13 14 29 25 35 25 7
0 22 11 35 25 13 14 26 25 30 25 4 0 14 6 21 12 31 28 44 38 50 38 4 0 13 6
20 12 30 27 44 38 50 38 3 0 21 16 41 35 19 19 39 35 45 35 5 0 20 11 33 25
13 14 27 25 31 25 4 0 18 11 31 25 13 14 30 25 39 25 8 0 15 7 15 15 0 8 5 15
11 15 6 0 26 16 45 35 18 19 39 35 44 35 6 0 26 16 44 35 19 19 37 35 41 35 4
0 18 11 31 25 13 14 30 25 39 25 8 0 15 5 15 11 0 14 25 39 39 39 6 0 11 5 11
11 0 13 25 39 38 39 5 0 15 11 22 25 7 14 19 25 27 25 7 0 13 5 13 10 0 6 5
10 10 10 6 0 21 11 34 25 13 14 26 25 30 25 10 0 86 81 86 92 0 4 7 8 15 8 8
0 15 5 15 11 0 11 25 39 34 39 4 0 22 16 40 35 19 19 39 35 45 35 6 0 11 5 11
11 0 14 25 39 39 39 6 0 11 5 11 11 0 14 25 39 39 39 6 0 11 5 11 10 0 6 13
24 30 42 16 17 30 35 30 39 0 5 7 9 15 9 8 0 15 7 15 15 0 8 4 15 9 15 11 0
151 138 151 149 0 4 14 22 30 39 16 18 30 36 30 42 0 5 5 10 11 10 11 0 39 25
39 35 0 10 28 35 39 35 6 0 11 5 11 10 0 6 11 22 25 36 14 14 25 31 25 39 0 8
6 15 13 15 8 0 20 11 27 25 7 14 17 25 22 25 4 0 8 5 8 10 0 6 15 26 33 44 41
43 87 99 87 109 0 4 7 7 15 7 8 0 15 6 15 13 0 8 8 23 18 35 43 51 52 62 69
89 10 15 26 37 35 47 10 11 18 23 18 28 0 4 6 8 14 8 8 0 17 11 20 25 4 14 11
25 16 25 6 0 10 6 10 13 0 7 9 19 20 27 11 8 20 20 20 26 0 6 16 29 35 50 19
21 37 46 41 56 3 10 10 18 15 18 5 0 9 7 9 15 0 8 4 15 9 15 5 0 13 9 16 21 4
12 14 30 24 41 9 11 24 29 34 40 9 12 17 25 17 30 0 5 11 20 25 34 14 14 25
31 25 39 0 8 4 15 8 15 5 0 18 17 30 38 11 21 30 48 41 61 12 13 21 30 21 38
0 7 5 13 10 13 6 0 10 6 10 13 0 7 11 24 25 39 14 15 25 36 25 48 0 11 4 20 8
20 4 0 24 27 43 60 18 33 37 60 42 60 4 0 7 7 7 15 0 8 4 15 9 15 5 0 12 11
15 25 4 14 11 25 16 25 6 0 10 9 10 20 0 11 5 20 10 20 6 0 10 7 10 15 0 8 4
15 9 15 5 0 12 11 15 25 4 14 11 25 16 25 6 0 10 11 10 25 0 14 4 25 10 25 5
0 12 11 16 25 3 14 9 25 13 25 3 0 15 16 25 35 11 19 23 35 28 35 4 0 8 11 8
25 0 14 4 25 9 25 5 0 12 11 15 25 4 14 11 25 16 25 6 0 10 11 10 25 0 14 4
25 10 25 5 0 12 11 16 25 3 14 10 25 15 25 5 0 9 9 9 20 0 11 4 20 8 20 4 0
16 22 26 50 10 27 22 50 27 50 5 0 9 9 9 20 0 11 11 38 25 60 14 22 25 46 25
55 0 8 4 15 9 15 5 0 12 11 15 25 4 14 11 25 16 25 6 0 10 11 10 24 0 13 4 26
8 28 4 2 23 39 42 83 19 44 38 82 42 83 4 2 8 15 8 28 0 13 5 24 10 24 6 0 10
10 10 23 0 12 12 45 25 72 14 28 25 56 25 63 0 6 4 12 10 12 5 0 12 16 16 35
3 19 10 35 15 35 5 0 9 10 9 23 0 12 7 31 15 41 8 11 15 30 15 43 0 13 5 23
10 23 6 0 10 9 10 20 0 22 31 93 43 98 4 2 7 11 7 20 0 9 11 46 23 82 36 98
47 135 47 153 0 9 4 17 9 17 5 0 11 18 15 40 3 22 11 40 16 40 6 0 10 13 10
29 0 16 10 50 22 77 12 27 25 65 29 84 13 59 33 125 40 130 4 3 9 21 12 40 7
46 30 124 38 130 4 3 9 21 12 40 10 67 51 245 58 250 4 3 9 23 12 45 3 22 13
69 22 105 10 36 19 89 22 118 3 28 9 52 13 52 5 0 12 27 16 60 4 33 11 60 15
60 5 0 9 24 9 53 0 28 7 74 15 101 8 27 15 64 15 83 0 18 4 33 9 33 5 0 11 35
14 78 4 42 13 118 22 167 9 50 20 131 25 180 5 50 15 153 24 230 8 77 18 215
22 308 4 92 11 167 15 167 5 0 9 4072 9 9070 l0 9070 -3320 0 -3320 0 0 -6839
0 -6840 24 -25 c13 -15 28 -26 35 -26 6 0 11 -4 11 -10 0 -5 6 -10 13 -10 8 0
20 -11 27 -25 7 -14 19 -25 27 -25 7 0 13 -4 13 -9 0 -6 55 -66 123 -135 110
-112 148 -153 204 -223 10 -11 34 -40 53 -64 19 -24 45 -53 58 -66 12 -12 22
-25 22 -28 0 -4 12 -19 28 -34 15 -16 43 -56 62 -89 19 -34 41 -62 48 -62 6 0
12 -7 12 -15 0 -8 3 -15 8 -15 4 0 16 -16 26 -35 11 -19 23 -35 28 -35 4 0 8
-6 8 -13 0 -8 9 -25 21 -38 11 -13 30 -40 41 -61 12 -21 25 -38 30 -38 4 0 8
-7 8 -15 0 -15 46 -95 60 -105 4 -3 10 -15 14 -27 4 -13 12 -23 17 -23 5 0 9
-11 9 -25 0 -14 4 -25 9 -25 4 0 23 -30 42 -67 19 -38 37 -69 41 -71 5 -2 8
-10 8 -18 0 -8 5 -14 10 -14 6 0 10 -11 10 -25 0 -14 4 -25 10 -25 5 0 12 -11
16 -25 3 -14 10 -25 15 -25 5 0 9 -9 9 -19 0 -11 4 -22 9 -25 5 -3 12 -22 15
-41 4 -19 11 -35 16 -35 6 0 10 -11 10 -25 0 -14 5 -25 10 -25 6 0 10 -11 10
-24 0 -13 4 -26 9 -28 10 -4 91 -195 91 -217 0 -9 7 -25 15 -35 8 -11 15 -30
15 -43 0 -13 4 -23 9 -23 5 0 11 -12 14 -28 14 -68 49 -199 57 -214 6 -9 13
-35 16 -58 4 -22 10 -40 15 -40 5 0 9 -15 9 -34 0 -19 5 -38 10 -41 6 -3 10
-16 10 -28 0 -12 11 -67 24 -122 36 -151 58 -285 75 -465 6 -58 16 -143 22
-190 23 -179 3 -885 -31 -1075 -5 -27 -16 -95 -25 -150 -29 -181 -71 -366
-101 -448 -8 -20 -14 -51 -14 -67 0 -17 -4 -30 -8 -30 -4 0 -14 -28 -20 -62
-7 -35 -19 -76 -27 -93 -7 -16 -19 -50 -25 -75 -7 -25 -18 -57 -26 -72 -8 -14
-14 -36 -14 -47 0 -12 -4 -21 -10 -21 -5 0 -10 -11 -10 -24 0 -14 -7 -31 -15
-40 -8 -8 -15 -24 -15 -35 0 -12 -4 -21 -10 -21 -5 0 -10 -11 -10 -25 0 -14
-4 -25 -10 -25 -5 0 -12 -16 -16 -35 -3 -19 -10 -35 -15 -35 -5 0 -9 -11 -9
-25 0 -14 -4 -25 -9 -25 -6 0 -18 -26 -28 -57 -9 -32 -20 -60 -23 -63 -6 -6
-27 -45 -94 -175 -28 -55 -53 -102 -56 -105 -13 -12 -40 -60 -40 -70 0 -6 -8
-20 -19 -31 -10 -11 -31 -46 -47 -79 -16 -32 -35 -59 -41 -59 -7 -1 -13 -10
-13 -21 0 -12 -11 -33 -25 -48 -14 -15 -25 -31 -25 -35 0 -5 -6 -14 -12 -21
-7 -7 -24 -28 -38 -46 -14 -18 -31 -39 -37 -46 -7 -7 -13 -17 -13 -23 0 -6 -4
-11 -9 -11 -5 0 -15 -16 -22 -35 -7 -19 -19 -35 -25 -35 -7 0 -15 -8 -18 -17
-3 -10 -19 -34 -36 -53 -16 -19 -30 -38 -30 -42 0 -5 -7 -8 -15 -8 -8 0 -15
-5 -15 -10 0 -6 -11 -22 -25 -36 -14 -14 -25 -29 -25 -35 0 -5 -20 -29 -45
-53 -25 -25 -45 -47 -45 -50 0 -11 -336 -356 -346 -356 -3 0 -15 -11 -28 -25
-13 -14 -28 -25 -35 -25 -6 0 -11 -7 -11 -15 0 -8 -5 -15 -11 -15 -5 0 -30
-20 -55 -45 -24 -25 -49 -45 -54 -45 -6 0 -21 -11 -34 -25 -13 -14 -26 -25
-30 -25 -4 0 -17 -11 -30 -25 -13 -14 -28 -25 -34 -25 -5 0 -12 -7 -16 -15 -3
-8 -10 -15 -16 -15 -6 0 -22 -10 -35 -23 -40 -37 -54 -47 -65 -47 -5 0 -10 -4
-10 -10 0 -5 -5 -10 -11 -10 -6 0 -17 -6 -24 -12 -31 -28 -44 -38 -50 -38 -4
0 -13 -6 -20 -13 -34 -29 -45 -37 -55 -37 -6 0 -21 -11 -34 -25 -13 -14 -29
-25 -35 -25 -7 0 -19 -6 -26 -12 -35 -32 -45 -38 -60 -38 -8 0 -15 -4 -15 -9
0 -5 -20 -17 -45 -28 -25 -10 -45 -21 -45 -25 0 -5 -9 -8 -19 -8 -10 0 -21 -7
-25 -15 -3 -8 -12 -15 -21 -15 -8 0 -15 -4 -15 -10 0 -5 -9 -10 -20 -10 -11 0
-20 -4 -20 -10 0 -5 -11 -12 -25 -16 -14 -3 -25 -10 -25 -15 0 -5 -11 -9 -25
-9 -14 0 -25 -4 -25 -10 0 -5 -11 -12 -25 -16 -14 -3 -25 -10 -25 -15 0 -5 -7
-9 -16 -9 -8 0 -22 -7 -30 -15 -9 -8 -24 -15 -35 -15 -10 0 -19 -4 -19 -10 0
-5 -9 -10 -21 -10 -11 0 -27 -6 -34 -14 -8 -7 -34 -20 -59 -27 -26 -7 -46 -17
-46 -21 0 -4 -13 -8 -30 -8 -16 0 -30 -4 -30 -10 0 -5 -11 -12 -25 -16 -14 -3
-25 -10 -25 -15 0 -5 -16 -9 -35 -9 -19 0 -35 -4 -35 -10 0 -5 -16 -12 -35
-16 -19 -3 -35 -10 -35 -15 0 -5 -12 -9 -26 -9 -14 0 -32 -7 -40 -15 -9 -8
-26 -15 -40 -15 -13 0 -24 -4 -24 -10 0 -5 -16 -10 -35 -10 -19 0 -35 -4 -35
-10 0 -5 -18 -13 -40 -16 -22 -4 -40 -10 -40 -15 0 -5 -20 -9 -45 -9 -25 0
-45 -4 -45 -10 0 -5 -18 -10 -40 -10 -22 0 -40 -4 -40 -9 0 -5 -22 -12 -50
-16 -28 -4 -50 -11 -50 -16 0 -5 -27 -9 -59 -9 -33 0 -61 -5 -63 -10 -2 -6
-27 -13 -56 -17 -28 -3 -52 -10 -52 -14 0 -5 -31 -9 -69 -9 -38 0 -71 -4 -73
-10 -1 -5 -40 -12 -85 -16 -46 -4 -83 -11 -83 -15 0 -5 -54 -9 -119 -9 -87 0
-120 -3 -124 -12 -3 -10 -89 -13 -387 -13 -298 0 -384 3 -388 13 -3 9 -35 12
-118 12 -63 0 -114 4 -114 9 0 4 -39 11 -87 14 -48 4 -89 11 -91 17 -2 5 -33
10 -68 10 -35 0 -64 4 -64 9 0 4 -28 11 -62 15 -35 3 -64 11 -66 16 -2 6 -26
10 -53 10 -27 0 -49 4 -49 9 0 5 -23 11 -50 15 -27 4 -50 11 -50 16 0 6 -20
10 -45 10 -25 0 -45 5 -45 10 0 6 -18 10 -40 10 -22 0 -40 4 -40 9 0 5 -20 12
-45 15 -25 4 -45 11 -45 17 0 5 -16 9 -35 9 -19 0 -35 5 -35 10 0 6 -9 10 -19
10 -11 0 -26 7 -35 15 -8 8 -28 15 -45 15 -17 0 -31 5 -31 10 0 6 -11 10 -24
10 -14 0 -31 7 -40 15 -8 8 -26 15 -40 15 -14 0 -26 5 -26 10 0 6 -9 10 -19
10 -11 0 -26 7 -35 15 -8 8 -26 15 -40 15 -14 0 -26 4 -26 8 0 4 -20 14 -46
21 -25 7 -51 20 -59 27 -7 8 -23 14 -35 14 -12 0 -28 6 -35 12 -36 32 -46 38
-65 38 -11 0 -20 4 -20 9 0 5 -11 12 -25 15 -14 4 -25 11 -25 16 0 6 -11 10
-25 10 -14 0 -25 4 -25 9 0 5 -11 12 -25 15 -14 4 -25 11 -25 16 0 6 -9 10
-20 10 -11 0 -20 5 -20 10 0 6 -7 10 -15 10 -9 0 -18 7 -21 15 -4 8 -15 15
-25 15 -10 0 -19 4 -19 8 0 4 -16 14 -36 21 -19 7 -38 19 -41 27 -3 8 -14 14
-25 14 -11 0 -26 6 -33 12 -31 28 -44 38 -50 38 -4 0 -13 6 -20 12 -34 30 -45
38 -55 38 -6 0 -18 6 -25 12 -31 28 -44 38 -51 38 -4 0 -17 11 -30 25 -13 14
-30 25 -39 25 -8 0 -15 5 -15 10 0 6 -5 10 -11 10 -6 0 -17 6 -24 12 -31 28
-44 38 -51 38 -4 0 -17 11 -30 25 -13 14 -26 25 -29 25 -7 0 -24 14 -60 48
-13 12 -29 22 -35 22 -5 0 -10 5 -10 11 0 14 -25 39 -40 39 -6 0 -13 7 -16 15
-4 8 -12 15 -20 15 -8 0 -14 5 -14 10 0 6 -6 10 -13 10 -8 0 -20 11 -27 25 -7
14 -17 25 -22 25 -13 0 -138 127 -138 140 0 5 -5 10 -10 10 -11 0 -43 27 -88
73 -70 73 -182 195 -259 282 -7 7 -13 16 -13 19 0 3 -20 26 -44 51 -25 25 -48
55 -51 65 -4 11 -11 20 -16 20 -5 0 -9 5 -9 10 0 6 -11 22 -25 36 -14 14 -25
30 -25 36 0 6 -11 21 -25 34 -14 13 -25 28 -25 34 0 6 -11 21 -25 34 -14 13
-25 26 -25 30 0 4 -6 14 -12 21 -30 33 -38 45 -38 55 0 5 -4 10 -8 10 -4 0
-21 26 -37 57 -17 32 -36 63 -42 71 -7 7 -13 20 -13 28 0 8 -4 14 -10 14 -5 0
-10 7 -10 15 0 8 -3 15 -7 15 -9 0 -43 57 -43 71 0 6 -9 20 -20 32 -12 12 -23
32 -26 44 -4 13 -10 23 -14 23 -4 0 -16 23 -26 50 -10 27 -21 50 -25 50 -4 0
-15 20 -25 45 -9 25 -21 45 -25 45 -5 0 -9 11 -9 25 0 14 -3 25 -8 25 -4 0
-23 38 -41 85 -19 47 -38 85 -43 85 -4 0 -8 11 -8 25 0 14 -4 25 -10 25 -5 0
-10 11 -10 25 0 14 -4 25 -10 25 -5 0 -12 12 -16 28 -3 15 -17 50 -30 79 -13
28 -24 57 -24 63 0 6 -16 58 -35 116 -19 57 -35 115 -35 129 0 14 -3 25 -8 25
-4 0 -13 21 -20 48 -13 50 -20 73 -47 162 -9 30 -19 78 -22 105 -3 28 -8 52
-12 55 -10 7 -32 123 -38 200 -3 36 -8 67 -12 70 -9 6 -28 149 -44 315 -14
160 -14 777 1 940 10 116 18 178 51 385 25 155 34 200 41 200 4 0 10 24 13 53
3 28 13 77 23 107 9 30 19 71 21 90 3 19 9 40 13 45 4 6 11 25 15 42 3 18 10
33 15 33 4 0 10 17 13 38 3 20 13 62 22 92 10 30 19 67 22 82 3 16 9 28 14 28
5 0 9 7 9 16 0 24 33 114 42 114 5 0 8 10 8 21 0 19 13 49 66 151 8 14 14 36
14 47 0 12 5 21 10 21 6 0 10 11 10 25 0 14 4 25 10 25 5 0 12 11 16 25 3 14
10 25 15 25 5 0 9 6 9 13 0 6 11 35 25 62 13 28 25 56 25 63 0 6 5 12 10 12 6
0 10 7 10 15 0 14 25 61 40 75 3 3 19 32 35 65 17 33 32 62 36 65 3 3 20 29
38 59 18 30 39 61 47 68 8 8 17 25 20 39 3 13 10 24 14 24 4 0 11 11 14 25 4
14 11 25 16 25 6 0 10 5 10 11 0 6 6 17 13 24 29 33 37 45 37 55 0 5 4 10 9
10 5 0 13 10 17 22 4 12 22 37 40 55 19 18 34 37 34 43 0 6 11 21 24 33 13 12
26 32 30 44 4 13 20 36 37 52 16 16 29 34 29 39 0 5 11 15 25 22 13 7 27 20
30 29 3 9 18 32 35 51 16 19 30 38 30 43 0 4 7 7 15 7 8 0 15 5 15 10 0 10 24
38 123 140 26 27 47 54 47 60 0 5 5 10 11 10 6 0 44 34 84 75 41 41 78 75 84
75 6 0 11 5 11 10 0 6 7 10 15 10 13 0 15 1139 15 10190 l0 10190 -3320 0
-3320 0 3 -12297z"/>
<path d="M19080 16120 c0 -6 -38 -10 -94 -10 -57 0 -96 -4 -98 -10 -2 -6 -29
-14 -61 -17 -31 -3 -57 -10 -57 -14 0 -5 -20 -9 -45 -9 -25 0 -45 -4 -45 -9 0
-7 -43 -20 -132 -38 -16 -3 -28 -9 -28 -14 0 -5 -15 -9 -34 -9 -21 0 -36 -6
-40 -15 -3 -8 -15 -15 -26 -15 -11 0 -20 -4 -20 -10 0 -5 -13 -10 -30 -10 -16
0 -30 -4 -30 -10 0 -5 -11 -12 -25 -16 -14 -3 -25 -10 -25 -15 0 -5 -9 -9 -20
-9 -19 0 -29 -6 -65 -37 -7 -7 -23 -13 -34 -13 -12 0 -21 -6 -21 -15 0 -8 -9
-15 -20 -15 -11 0 -20 -4 -20 -10 0 -5 -7 -10 -15 -10 -8 0 -15 -4 -15 -10 0
-5 -9 -10 -20 -10 -12 0 -31 -11 -44 -25 -13 -14 -29 -25 -35 -25 -7 0 -22
-11 -35 -25 -13 -14 -28 -25 -33 -25 -5 0 -16 -11 -23 -25 -7 -14 -20 -25 -27
-25 -8 0 -24 -11 -37 -25 -13 -14 -28 -25 -35 -25 -6 0 -11 -5 -11 -11 0 -11
-25 -39 -35 -39 -9 0 -105 -102 -105 -112 0 -4 -7 -8 -15 -8 -8 0 -15 -5 -15
-10 0 -6 -11 -22 -25 -36 -14 -14 -25 -29 -25 -35 0 -5 -20 -29 -44 -52 -24
-23 -46 -53 -50 -65 -4 -12 -12 -22 -17 -22 -5 0 -9 -7 -9 -15 0 -8 -4 -15 -8
-15 -4 0 -21 -26 -37 -57 -17 -32 -32 -60 -36 -63 -9 -9 -69 -110 -69 -118 0
-4 -11 -29 -25 -56 -14 -27 -25 -55 -25 -63 0 -7 -4 -13 -10 -13 -5 0 -10 -9
-10 -20 0 -11 -4 -20 -9 -20 -5 0 -12 -15 -16 -32 -4 -18 -17 -62 -30 -98 -13
-36 -33 -110 -45 -165 -12 -55 -26 -117 -31 -138 -12 -44 -28 -200 -36 -346
-7 -123 14 -347 45 -501 36 -174 46 -212 67 -265 13 -33 27 -75 30 -92 4 -18
11 -33 16 -33 5 0 9 -11 9 -24 0 -13 3 -26 8 -28 7 -3 62 -108 62 -120 0 -4
22 -44 50 -90 27 -46 50 -87 50 -91 0 -5 6 -15 13 -22 29 -33 37 -45 37 -55 0
-5 4 -10 9 -10 5 0 13 -10 17 -22 4 -13 15 -30 25 -39 11 -9 19 -21 19 -28 0
-6 7 -11 15 -11 8 0 15 -5 15 -10 0 -11 10 -25 48 -65 12 -13 22 -29 22 -35 0
-5 7 -10 15 -10 8 0 15 -4 15 -9 0 -12 147 -161 160 -161 5 0 10 -7 10 -15 0
-8 5 -15 10 -15 11 0 26 -11 66 -47 14 -13 28 -23 31 -23 3 0 16 -11 29 -25
13 -14 28 -25 35 -25 6 0 22 -11 35 -25 13 -14 31 -25 40 -25 9 0 27 -11 40
-25 13 -14 30 -25 39 -25 8 0 15 -4 15 -9 0 -5 11 -12 25 -15 14 -4 25 -11 25
-16 0 -6 9 -10 20 -10 11 0 20 -4 20 -10 0 -5 11 -10 25 -10 14 0 25 -4 25 -9
0 -5 11 -12 25 -15 14 -4 25 -11 25 -16 0 -6 14 -10 30 -10 17 0 30 -4 30 -10
0 -5 9 -10 20 -10 11 0 23 -7 26 -15 4 -9 19 -15 40 -15 19 0 34 -4 34 -10 0
-5 11 -10 24 -10 14 0 31 -7 40 -15 8 -8 32 -15 55 -15 23 0 41 -4 41 -9 0 -4
19 -11 42 -14 24 -3 44 -11 46 -16 2 -6 30 -11 63 -11 32 0 59 -4 59 -9 0 -4
42 -11 93 -15 50 -4 94 -11 95 -16 5 -13 389 -13 394 0 2 5 47 12 101 16 53 4
97 11 97 15 0 5 27 9 59 9 34 0 61 5 63 11 2 6 25 13 51 16 26 3 47 10 47 14
0 5 16 9 35 9 19 0 35 4 35 10 0 5 18 13 40 16 22 4 40 10 40 15 0 5 15 9 34
9 21 0 36 6 40 15 3 8 15 15 26 15 11 0 20 5 20 10 0 6 11 10 25 10 14 0 25 4
25 10 0 5 11 12 25 16 14 3 25 10 25 15 0 5 11 9 25 9 14 0 25 5 25 10 0 6 9
10 21 10 11 0 27 6 34 13 35 31 45 37 60 37 9 0 26 11 39 25 13 14 29 25 35
25 7 0 22 11 35 25 13 14 33 25 45 25 11 0 21 5 21 11 0 14 25 39 39 39 6 0
11 4 11 9 0 5 9 12 19 16 11 3 40 26 65 50 25 25 50 45 56 45 5 0 10 5 10 11
0 13 25 39 38 39 5 0 15 11 22 25 7 14 19 25 27 25 7 0 13 5 13 10 0 6 23 33
50 61 28 27 50 53 50 57 0 4 14 23 30 42 16 19 30 38 30 43 0 4 7 7 15 7 9 0
15 9 15 21 0 12 11 32 25 45 14 13 25 28 25 35 0 6 11 22 25 35 14 13 25 26
25 30 0 10 53 118 60 124 4 3 15 26 25 53 10 26 22 47 26 47 5 0 9 11 9 25 0
14 4 25 9 25 5 0 12 11 15 25 4 14 11 25 16 25 6 0 10 13 10 29 0 16 8 44 17
63 9 18 20 41 25 50 4 10 8 31 8 48 0 16 4 30 9 30 5 0 12 23 16 50 4 28 11
50 15 50 4 0 11 24 14 53 3 28 12 104 21 167 13 90 15 166 11 355 -3 132 -10
263 -16 290 -6 28 -13 76 -17 108 -3 31 -9 57 -13 57 -4 0 -11 20 -14 45 -4
24 -11 47 -17 50 -5 4 -9 22 -9 41 0 19 -4 34 -10 34 -5 0 -10 10 -10 23 0 13
-7 32 -15 43 -8 10 -15 34 -15 52 0 17 -3 32 -7 32 -12 0 -43 59 -43 81 0 10
-4 19 -9 19 -5 0 -17 23 -27 50 -10 28 -21 50 -25 50 -3 0 -14 20 -23 45 -10
25 -22 45 -27 45 -5 0 -9 11 -9 25 0 16 -6 25 -15 25 -8 0 -15 7 -15 15 0 8
-4 15 -10 15 -5 0 -10 7 -10 15 0 9 -11 26 -25 39 -14 13 -25 33 -25 45 0 12
-6 21 -15 21 -8 0 -15 4 -15 8 0 4 -16 25 -35 46 -19 21 -35 43 -35 48 0 5
-20 28 -45 52 -25 25 -45 49 -45 55 0 6 -6 11 -13 11 -8 0 -20 11 -27 25 -7
14 -17 25 -23 25 -5 0 -24 16 -43 35 -18 19 -36 35 -40 35 -9 0 -34 28 -34 39
0 6 -5 11 -11 11 -6 0 -17 6 -24 13 -31 27 -44 37 -50 37 -10 0 -35 28 -35 39
0 6 -10 11 -21 11 -12 0 -32 11 -45 25 -13 14 -30 25 -39 25 -8 0 -15 5 -15
10 0 6 -7 10 -15 10 -8 0 -15 4 -15 9 0 5 -11 12 -25 15 -14 4 -25 11 -25 16
0 6 -9 10 -20 10 -11 0 -20 4 -20 9 0 5 -11 12 -25 15 -14 4 -25 11 -25 16 0
6 -11 10 -25 10 -14 0 -25 4 -25 9 0 5 -11 12 -25 15 -14 4 -25 11 -25 16 0 6
-11 10 -25 10 -14 0 -25 5 -25 10 0 6 -9 10 -20 10 -11 0 -23 7 -26 15 -4 9
-19 15 -40 15 -19 0 -34 4 -34 8 0 5 -30 15 -66 22 -37 8 -73 20 -80 27 -7 7
-33 13 -58 13 -25 0 -46 4 -46 9 0 4 -26 11 -57 14 -32 3 -59 11 -61 17 -2 6
-43 10 -103 10 -59 0 -99 4 -99 10 0 6 -72 10 -195 10 -123 0 -195 -4 -195
-10z"/>
</g>
</svg>
