<svg width="63" height="60" viewBox="0 0 63 60" fill="none" xmlns="http://www.w3.org/2000/svg">
<path id="Vector" d="M58.88 27.5909C57.9919 25.4695 56.715 23.4886 55.1174 21.756V12.4406C55.1174 10.891 54.387 9.45169 53.11 8.48882C51.854 7.54349 50.2486 7.20248 48.6931 7.55102C43.8979 8.64178 40.3008 11.2345 38.3749 14.9381H24.2835C17.5018 14.9381 11.4139 17.8418 7.4174 22.3828C4.26437 21.944 4.64537 17.4406 7.81941 17.4456C11.2536 17.433 11.2562 12.4431 7.81941 12.4306C-0.549245 12.4055 -3.02963 23.4786 4.48771 26.7459C-0.134097 35.823 3.88601 47.5129 13.0745 52.3524V52.5505C13.0797 60.9531 25.5289 62.8763 28.3903 55.0579H34.5466C37.4079 62.8813 49.8571 60.948 49.8624 52.5505V52.3198C53.9613 50.0555 57.1433 46.5525 58.88 42.4051C61.0372 41.9663 63 40.2788 63 37.5055V32.4905C63 29.7172 61.0346 28.0297 58.88 27.5909ZM47.2349 32.4905C43.7981 32.4755 43.7981 27.4906 47.2349 27.4755C50.6717 27.4906 50.6717 32.4755 47.2349 32.4905ZM15.8412 11.2069C14.3646 -2.81245 36.1783 -4.169 36.7248 9.9231H24.2861C21.3406 9.9231 18.5055 10.387 15.8412 11.2069Z" fill="#CFDD19"/>
</svg>
