<svg width="60" height="53" viewBox="0 0 60 53" fill="none" xmlns="http://www.w3.org/2000/svg">
<path id="Vector" d="M30.14 23.022L50.2375 39.817L36.0025 50.4945C32.4475 53.162 27.5575 53.162 24.0025 50.4945L8.67 38.9945C7.3725 38.022 5.7925 37.4945 4.17 37.4945H2.5025C1.12 37.4945 0 36.3745 0 34.9945V7.337C0 6.067 0.9475 5.0095 2.21 4.867C5.6025 4.4895 8.6575 3.127 11.7825 1.307C16.2775 -1.0055 22.175 -0.180499 25.8225 3.237L27.365 4.7195L17.3475 14.497C14.665 17.177 14.2375 21.4145 16.3525 24.342C17.6525 26.1495 20.005 27.4895 22.4625 27.4895C24.445 27.4895 26.3475 26.7095 27.7225 25.332L30.14 23.0195V23.022ZM49.885 1.307C45.66 -0.805498 40.39 -0.255498 36.615 2.677L20.8575 18.057C19.93 18.987 19.72 20.4745 20.405 21.4245C20.855 22.0495 21.5075 22.4245 22.2525 22.487C22.99 22.5495 23.705 22.282 24.2225 21.762L33.2675 13.1895C35.64 10.937 39.0775 14.532 36.725 16.802L33.7725 19.5445L55.255 37.497H57.4975C58.8775 37.497 59.9975 36.377 59.9975 34.997V7.252C59.9975 6.027 59.1025 5.0145 57.895 4.797C53.66 4.032 49.8825 1.3095 49.8825 1.3095L49.885 1.307Z" fill="#CFDD19"/>
</svg>
