<svg width="60" height="53" viewBox="0 0 60 53" fill="none" xmlns="http://www.w3.org/2000/svg">
<path id="Vector" d="M60 18.0543V45.7776C60 46.4159 59.7366 47.028 59.2678 47.4793C58.7989 47.9306 58.163 48.1842 57.5 48.1842C56.8369 48.1842 56.2011 47.9306 55.7322 47.4793C55.2634 47.028 55 46.4159 55 45.7776V25.9285L36.4999 34.438C34.5493 35.5463 32.3224 36.1236 30.0574 36.1082C27.682 36.1117 25.3498 35.4972 23.3074 34.3297L4.8573 25.8755C3.40699 25.1248 2.19181 24.0141 1.33784 22.6588C0.48386 21.3035 0.0222083 19.7529 0.000781416 18.1679C-0.0206455 16.5829 0.398934 15.0213 1.21598 13.645C2.03303 12.2688 3.21778 11.1281 4.64729 10.3413C4.7148 10.3028 4.7873 10.2667 4.8573 10.233L23.4999 1.67051C25.5125 0.557871 27.7968 -0.0185769 30.1176 0.000456518C32.4385 0.0194899 34.7122 0.633318 36.7049 1.7788L55.1425 10.233C56.5973 11.0079 57.8131 12.1397 58.6663 13.5134C59.5195 14.8872 59.9796 16.4538 60 18.0543ZM30.0549 40.9164C26.8563 40.9232 23.7127 40.1163 20.9424 38.5773L9.99981 33.55V40.0477C10.0013 42.6167 10.8557 45.118 12.4384 47.1866C14.0211 49.2552 16.2491 50.7826 18.7973 51.5461C22.4382 52.5524 26.2122 53.0413 29.9999 52.9973C33.7881 53.0382 37.5621 52.546 41.2024 51.5365C43.7507 50.773 45.9787 49.2455 47.5614 47.177C49.144 45.1084 49.9985 42.6071 50 40.038V33.562L38.8524 38.688C36.1765 40.1678 33.1409 40.9384 30.0549 40.9212V40.9164Z" fill="#CFDD19"/>
</svg>
