<svg width="102" height="106" viewBox="0 0 102 106" fill="none" xmlns="http://www.w3.org/2000/svg">
<g filter="url(#filter0_d_510_512)">
<circle cx="51" cy="50" r="50" fill="#226ED8"/>
<path d="M51.0007 46.4271L39.6257 57.8021C39.0909 58.3368 38.4104 58.6042 37.584 58.6042C36.7576 58.6042 36.077 58.3368 35.5423 57.8021C35.0076 57.2674 34.7402 56.5868 34.7402 55.7604C34.7402 54.934 35.0076 54.2535 35.5423 53.7188L48.959 40.3021C49.2507 40.0104 49.5666 39.8038 49.9069 39.6823C50.2472 39.5608 50.6118 39.5 51.0007 39.5C51.3895 39.5 51.7541 39.5608 52.0944 39.6823C52.4347 39.8038 52.7507 40.0104 53.0423 40.3021L66.459 53.7188C66.9937 54.2535 67.2611 54.934 67.2611 55.7604C67.2611 56.5868 66.9937 57.2674 66.459 57.8021C65.9243 58.3368 65.2437 58.6042 64.4173 58.6042C63.5909 58.6042 62.9104 58.3368 62.3757 57.8021L51.0007 46.4271Z" fill="#F2F3F4"/>
</g>
<defs>
<filter id="filter0_d_510_512" x="0" y="0" width="102" height="106" filterUnits="userSpaceOnUse" color-interpolation-filters="sRGB">
<feFlood flood-opacity="0" result="BackgroundImageFix"/>
<feColorMatrix in="SourceAlpha" type="matrix" values="0 0 0 0 0 0 0 0 0 0 0 0 0 0 0 0 0 0 127 0" result="hardAlpha"/>
<feOffset dy="5"/>
<feGaussianBlur stdDeviation="0.5"/>
<feComposite in2="hardAlpha" operator="out"/>
<feColorMatrix type="matrix" values="0 0 0 0 0 0 0 0 0 0 0 0 0 0 0 0 0 0 0.25 0"/>
<feBlend mode="normal" in2="BackgroundImageFix" result="effect1_dropShadow_510_512"/>
<feBlend mode="normal" in="SourceGraphic" in2="effect1_dropShadow_510_512" result="shape"/>
</filter>
</defs>
</svg>
