<svg width="100" height="100" viewBox="0 0 100 100" fill="none" xmlns="http://www.w3.org/2000/svg">
<circle cx="50" cy="50" r="50" fill="#29A71A"/>
<path d="M35.035 40.0153C35.3207 37.756 38.2569 34.6854 40.5872 35.0261L40.5835 35.0224C42.8513 35.4533 44.6465 39.3565 45.6588 41.1116C46.376 42.385 45.9103 43.6753 45.2413 44.2197C44.3388 44.9471 42.9275 45.9507 43.2236 46.9585C43.75 48.75 50 55 53.074 56.7767C54.2375 57.4492 55.0813 55.6755 55.8018 54.7668C56.3253 54.0677 57.6165 53.65 58.887 54.34C60.7845 55.445 62.572 56.7292 64.225 58.175C65.0505 58.865 65.2443 59.8847 64.6723 60.9625C63.6648 62.8607 60.7508 65.364 58.6355 64.8552C54.941 63.967 40 58.175 35.2008 41.395C34.9309 40.6012 34.9989 40.3011 35.035 40.0153Z" fill="#F2F3F4"/>
<path fill-rule="evenodd" clip-rule="evenodd" d="M50 77.5C46.941 77.5 45.2485 77.1717 42.5 76.25L37.2361 78.882C33.9115 80.5442 30 78.1268 30 74.4098V68.75C24.6164 63.73 22.5 57.9417 22.5 50C22.5 34.8122 34.8122 22.5 50 22.5C65.1877 22.5 77.5 34.8122 77.5 50C77.5 65.1878 65.1877 77.5 50 77.5ZM35 66.5758L33.4099 65.093C29.2272 61.193 27.5 56.8327 27.5 50C27.5 37.5736 37.5736 27.5 50 27.5C62.4265 27.5 72.5 37.5736 72.5 50C72.5 62.4265 62.4265 72.5 50 72.5C47.5357 72.5 46.38 72.2775 44.0899 71.5095L42.1212 70.8493L35 74.4098V66.5758Z" fill="#F2F3F4"/>
</svg>
